<svg width="194" height="35" viewBox="0 0 194 35" fill="none" xmlns="http://www.w3.org/2000/svg">
<path d="M8.9004 21.4739C10.0601 21.2239 11.1948 20.9184 12.3034 20.5526C11.1278 19.001 10.9467 16.9494 11.8196 15.2138L8.58176 14.1796C7.57618 16.5514 7.70178 19.2248 8.90129 21.4787L8.9004 21.4739Z" fill="#FF7B00"/>
<path d="M2.10681 22.7578L5.48422 22.132C4.21337 19.1344 4.25973 15.958 5.36512 13.1517L2.13781 12.1206C0.8881 15.4449 0.799231 19.2057 2.10288 22.7635L2.10681 22.7578Z" fill="#FF7B00"/>
<path d="M21.1543 16.0004C22.1084 15.3074 23.0134 14.5632 23.8796 13.7712C22.1206 10.1473 17.9253 8.12768 13.8395 9.40103L15.8487 12.4322C18.2324 12.2011 20.456 13.7088 21.1552 16.0053L21.1543 16.0004Z" fill="#003566"/>
<path d="M26.3494 11.2634C27.1336 10.3763 27.8663 9.45353 28.5556 8.48372C24.2944 2.64682 16.5529 0.602617 10.0027 3.62581L11.9069 6.49098C17.2933 4.29493 23.359 6.40907 26.3446 11.2643L26.3494 11.2634Z" fill="#003566"/>
<path d="M8.58116 14.1748L11.819 15.2089C12.5968 13.6613 14.0899 12.5926 15.8528 12.4264L13.8435 9.39524C11.426 10.1489 9.53665 11.9376 8.58509 14.169L8.58116 14.1748Z" fill="#FFC300"/>
<path d="M2.14128 12.1149L5.36859 13.1459C6.53802 10.1724 8.8641 7.72135 11.9067 6.49092L10.0025 3.62575C6.33788 5.32231 3.53606 8.41286 2.1461 12.114L2.14128 12.1149Z" fill="#FFC300"/>
<path d="M19.3603 21.9435V34.7H15.6768V16.3892H19.434L30.4111 29.1457V16.3892H34.0947V34.7H30.3497L19.3603 21.9435Z" fill="#0B090A"/>
<path d="M37.7783 34.7V31.0379H56.1962V34.7H37.7783ZM37.7783 23.7135H56.1962V27.3757H37.7783V23.7135ZM37.7783 16.3892H56.1962V20.0513H37.7783V16.3892Z" fill="#0B090A"/>
<path d="M67.2469 20.0513H59.892L59.8798 16.3892H78.2977V20.0513H70.9305V34.7H67.2469V20.0513Z" fill="#0B090A"/>
<path d="M82.3088 23.9902H86.7224V25.8812H82.4349C80.7483 25.8812 80.2439 26.6986 80.2439 27.7082V28.7339H86.6594V30.5288H80.2439V34.8077H78.3839V27.7242C78.3839 25.5607 79.4873 23.9902 82.3088 23.9902Z" fill="#0B090A"/>
<path d="M88.836 22.6761H90.5069V34.8077H88.836V22.6761Z" fill="#0B090A"/>
<path d="M96.1155 26.346H97.8652C100.072 26.346 101.475 27.7242 101.475 30.5768C101.475 33.4295 100.072 34.8077 97.8652 34.8077H96.1155C93.8929 34.8077 92.5058 33.4295 92.5058 30.5768C92.5058 27.7242 93.8929 26.346 96.1155 26.346ZM97.7075 27.9806H96.2731C94.8229 27.9806 94.1924 28.7499 94.1924 30.5768C94.1924 32.4038 94.8229 33.157 96.2731 33.157H97.7075C99.142 33.157 99.7882 32.4038 99.7882 30.5768C99.7882 28.7499 99.142 27.9806 97.7075 27.9806Z" fill="#0B090A"/>
<path d="M102.288 26.346H104.101L104.842 32.9487C104.889 33.3173 105.047 33.4936 105.441 33.4936C105.819 33.4936 105.977 33.3333 106.056 33.0288L107.238 27.9005C107.49 26.7787 108.199 26.1857 109.523 26.1857C110.848 26.1857 111.494 26.7787 111.746 27.9005L112.865 33.0288C112.928 33.3333 113.117 33.4936 113.496 33.4936C113.874 33.4936 114.016 33.3173 114.063 32.9487L114.93 26.346H116.743L115.813 33.0448C115.655 34.2147 114.993 35 113.48 35C112.187 35 111.494 34.4231 111.242 33.2532L110.122 28.1088C110.059 27.8204 109.823 27.6922 109.508 27.6922C109.177 27.6922 108.956 27.8204 108.893 28.1088L107.711 33.2532C107.443 34.4231 106.733 35 105.409 35C103.865 35 103.313 34.2147 103.155 33.0448L102.288 26.346Z" fill="#0B090A"/>
<path d="M119.384 23.9902H124.066C126.572 23.9902 127.628 25.1921 127.628 26.955C127.628 28.205 127.092 28.9582 126.099 29.3589C127.108 29.7755 127.675 30.5768 127.675 31.8269C127.675 33.5577 126.619 34.8077 124.113 34.8077H119.384C118.785 34.8077 118.501 34.5192 118.501 33.9263V24.8716C118.501 24.2786 118.785 23.9902 119.384 23.9902ZM120.33 30.1281V32.7564C120.33 32.8846 120.409 32.9327 120.535 32.9327H124.16C125.279 32.9327 125.8 32.4038 125.8 31.5224C125.8 30.6089 125.248 30.1281 124.16 30.1281H120.33ZM120.33 26.0415V28.5576H124.113C125.216 28.5576 125.752 28.1409 125.752 27.2595C125.752 26.4101 125.264 25.8492 124.129 25.8492H120.535C120.409 25.8492 120.33 25.9133 120.33 26.0415Z" fill="#0B090A"/>
<path d="M130.067 26.346H135.064C137.145 26.346 137.965 27.5319 137.965 29.1345V33.1089C137.965 34.3269 137.649 34.8077 136.246 34.8077H132.353C130.383 34.8077 129.563 33.8301 129.563 32.2275C129.563 30.689 130.32 29.7916 132.369 29.7916H136.325V29.1505C136.325 28.4935 135.963 27.9806 135.048 27.9806H130.067V26.346ZM135.868 33.157C136.199 33.157 136.325 33.0288 136.325 32.7243V31.1377H132.4C131.518 31.1377 131.202 31.5063 131.202 32.1314C131.202 32.7564 131.533 33.157 132.369 33.157H135.868Z" fill="#0B090A"/>
<path d="M140.327 22.6761H141.998V34.8077H140.327V22.6761Z" fill="#0B090A"/>
<path d="M144.722 26.346H149.719C151.799 26.346 152.619 27.5319 152.619 29.1345V33.1089C152.619 34.3269 152.304 34.8077 150.901 34.8077H147.008C145.037 34.8077 144.218 33.8301 144.218 32.2275C144.218 30.689 144.974 29.7916 147.023 29.7916H150.98V29.1505C150.98 28.4935 150.617 27.9806 149.703 27.9806H144.722V26.346ZM150.523 33.157C150.854 33.157 150.98 33.0288 150.98 32.7243V31.1377H147.055C146.172 31.1377 145.857 31.5063 145.857 32.1314C145.857 32.7564 146.188 33.157 147.023 33.157H150.523Z" fill="#0B090A"/>
<path d="M156.148 26.346H159.584C162.406 26.346 163.777 27.7082 163.777 30.048V34.8077H162.091V30.048C162.091 28.7178 161.334 27.9806 159.584 27.9806H156.857C156.716 27.9806 156.652 28.0608 156.652 28.221V34.8077H154.982V27.6601C154.982 26.6665 155.313 26.346 156.148 26.346Z" fill="#0B090A"/>
<path d="M169.342 26.346H173.63V27.9806H169.5C168.05 27.9806 167.419 28.7499 167.419 30.5768C167.419 32.4038 168.05 33.157 169.5 33.157H173.63V34.8077H169.342C167.12 34.8077 165.732 33.4295 165.732 30.5768C165.732 27.7242 167.12 26.346 169.342 26.346Z" fill="#0B090A"/>
<path d="M178.336 26.346H181.031C183.002 26.346 183.837 27.3076 183.837 28.9422C183.837 30.4967 183.065 31.3781 181.016 31.3781H177.059V31.9871C177.059 32.6602 177.422 33.157 178.336 33.157H183.427V34.8077H178.336C176.255 34.8077 175.435 33.6218 175.435 32.0192V29.1345C175.435 27.5319 176.255 26.346 178.336 26.346ZM177.059 29.1505V30.048H180.968C181.867 30.048 182.198 29.6634 182.198 29.0384C182.198 28.3973 181.835 27.9806 181.016 27.9806H178.336C177.422 27.9806 177.059 28.4935 177.059 29.1505Z" fill="#0B090A"/>
<path d="M188.13 26.346H191.551V27.9806H188.619C187.878 27.9806 187.547 28.3332 187.547 29.0704V34.8077H185.876V28.814C185.876 27.1152 186.491 26.346 188.13 26.346Z" fill="#0B090A"/>
</svg>
