<svg width="78" height="33" viewBox="0 0 78 33" fill="none" xmlns="http://www.w3.org/2000/svg">
<path d="M9.18894 20.2468C10.3211 20.0111 11.4288 19.7231 12.5111 19.3782C11.3635 17.9153 11.1866 15.9809 12.0388 14.3444L8.87786 13.3694C7.89617 15.6056 8.01878 18.1263 9.1898 20.2514L9.18894 20.2468Z" fill="#FF7B00"/>
<path d="M2.55676 21.4574L5.85394 20.8673C4.61328 18.041 4.65854 15.0461 5.73767 12.4002L2.58702 11.428C1.367 14.5623 1.28024 18.1082 2.55292 21.4628L2.55676 21.4574Z" fill="#FF7B00"/>
<path d="M21.1518 15.0861C22.0832 14.4327 22.9667 13.7311 23.8124 12.9842C22.0951 9.56744 17.9995 7.66324 14.0107 8.86383L15.9723 11.7218C18.2993 11.5039 20.4701 12.9254 21.1527 15.0907L21.1518 15.0861Z" fill="#003566"/>
<path d="M26.2235 10.6198C26.989 9.78334 27.7043 8.91333 28.3773 7.99894C24.2173 2.49557 16.6597 0.568186 10.2651 3.41862L12.124 6.12007C17.3825 4.04951 23.3041 6.04284 26.2188 10.6206L26.2235 10.6198Z" fill="#003566"/>
<path d="M8.87729 13.3648L12.0382 14.3398C12.7975 12.8806 14.2552 11.8731 15.9762 11.7163L14.0147 8.85837C11.6546 9.56901 9.81008 11.2555 8.88113 13.3594L8.87729 13.3648Z" fill="#FFC300"/>
<path d="M2.59041 11.4226L5.74105 12.3947C6.88269 9.59109 9.15352 7.28013 12.1238 6.12001L10.2649 3.41856C6.68732 5.01818 3.95205 7.93212 2.59511 11.4217L2.59041 11.4226Z" fill="#FFC300"/>
<path d="M19.4004 20.6895V32.7172H15.8043V15.4526H19.4723L30.1886 27.4803V15.4526H33.7847V32.7172H30.1287L19.4004 20.6895Z" fill="#0B090A"/>
<path d="M37.3808 32.7172V29.2643H55.3611V32.7172H37.3808ZM37.3808 22.3584H55.3611V25.8114H37.3808V22.3584ZM37.3808 15.4526H55.3611V18.9055H37.3808V15.4526Z" fill="#0B090A"/>
<path d="M66.1494 18.9055H58.9692L58.9572 15.4526H76.9376V18.9055H69.7455V32.7172H66.1494V18.9055Z" fill="#0B090A"/>
</svg>
